<?xml version="1.0" standalone="no"?><!DOCTYPE svg PUBLIC "-//W3C//DTD SVG 1.1//EN" "http://www.w3.org/Graphics/SVG/1.1/DTD/svg11.dtd"><svg t="1761987506291" class="icon" viewBox="0 0 1024 1024" version="1.1" xmlns="http://www.w3.org/2000/svg" p-id="1610" xmlns:xlink="http://www.w3.org/1999/xlink" width="200" height="200"><path d="M516.266667 866.133333c-12.8 0-21.333333-8.533333-25.6-17.066666l-55.466667-119.466667c-166.4-34.133333-285.866667-174.933333-285.866667-341.333333C149.333333 196.266667 311.466667 38.4 512 38.4s362.666667 157.866667 362.666667 349.866667c0 162.133333-119.466667 302.933333-281.6 341.333333l-51.2 119.466667c-4.266667 8.533333-12.8 17.066667-25.6 17.066666z m-4.266667-768c-166.4 0-302.933333 132.266667-302.933333 290.133334 0 140.8 106.666667 260.266667 251.733333 285.866666 8.533333 0 17.066667 8.533333 21.333333 17.066667l34.133334 72.533333 29.866666-72.533333c4.266667-8.533333 12.8-17.066667 21.333334-17.066667 145.066667-25.6 251.733333-145.066667 251.733333-285.866666-4.266667-157.866667-140.8-290.133333-307.2-290.133334z" fill="#4D4D4D" p-id="1611"></path><path d="M512 512c-59.733333 0-110.933333-46.933333-110.933333-106.666667s46.933333-110.933333 110.933333-110.933333 110.933333 46.933333 110.933333 110.933333S571.733333 512 512 512z m0-157.866667c-29.866667 0-51.2 21.333333-51.2 51.2s21.333333 51.2 51.2 51.2 51.2-21.333333 51.2-51.2-21.333333-51.2-51.2-51.2z" fill="#4D4D4D" p-id="1612"></path><path d="M512 977.066667c-162.133333 0-285.866667-59.733333-285.866667-136.533334 0-21.333333 8.533333-51.2 55.466667-81.066666 12.8-8.533333 25.6-4.266667 34.133333 8.533333 8.533333 12.8 4.266667 25.6-8.533333 34.133333-12.8 8.533333-29.866667 21.333333-29.866667 38.4 0 34.133333 89.6 85.333333 234.666667 85.333334s234.666667-51.2 234.666667-85.333334c0-17.066667-21.333333-34.133333-34.133334-42.666666-12.8-8.533333-17.066667-21.333333-8.533333-34.133334 8.533333-12.8 21.333333-17.066667 34.133333-8.533333 46.933333 29.866667 55.466667 59.733333 55.466667 85.333333 4.266667 81.066667-119.466667 136.533333-281.6 136.533334z" fill="#4D4C4D" p-id="1613"></path></svg>