<?xml version="1.0" standalone="no"?><!DOCTYPE svg PUBLIC "-//W3C//DTD SVG 1.1//EN" "http://www.w3.org/Graphics/SVG/1.1/DTD/svg11.dtd"><svg t="1761991363118" class="icon" viewBox="0 0 1024 1024" version="1.1" xmlns="http://www.w3.org/2000/svg" p-id="14239" xmlns:xlink="http://www.w3.org/1999/xlink" width="200" height="200"><path d="M737.4 76.4c-4.6-0.2-9.2 0.8-13.3 3-8.3 4.5-13.5 13.2-13.5 22.7L710 220H350.9C193.1 220 63.6 349.5 63.6 507.3v430.9h143.6V507.3c0-80.2 63.4-143.6 143.6-143.6H710v117.9c0 9.5 5.2 18.3 13.5 22.7 8.3 4.5 18.4 4 26.3-1.3 101.7-68.7 201.4-190.9 205-195.5 3.7-4.6 5.5-10.3 5.5-16s-1.9-11.3-5.5-16c-3.6-4.6-102.8-126-204.4-194.8-4-2.6-8.5-4.1-13-4.3z" p-id="14240"></path></svg>